<svg width="513" height="512" viewBox="0 0 513 512" fill="none" xmlns="http://www.w3.org/2000/svg">
<path d="M118.653 139C178.153 202 229.653 204.5 252.653 207C245.153 109.5 344.653 113.5 366.153 146.5C372.653 146.5 396.987 136.333 407.653 131C406.453 146.2 389.487 160.667 381.153 166C384.353 166.4 405.82 160.5 416.153 157.5C413.353 165.9 393.32 183.667 383.653 191.5C386.453 283.5 328.82 340.167 299.653 357C211.653 411.4 127.653 379.667 96.6533 357C140.253 362.2 178.487 340.833 192.153 329.5C150.553 326.3 135.153 297.833 132.653 284C141.853 285.2 153.82 283.5 158.653 282.5C115.853 269.7 108.153 234.167 109.653 218C118.453 222.4 131.32 224.167 136.653 224.5C95.8533 195.7 107.653 155.5 118.653 139Z" fill="#1DA1F2"/>
</svg>
